<mxfile host="Electron" agent="Mozilla/5.0 (X11; Linux x86_64) AppleWebKit/537.36 (KHTML, like Gecko) draw.io/26.0.9 Chrome/128.0.6613.186 Electron/32.3.0 Safari/537.36" version="26.0.9" pages="4">
  <diagram name="1" id="yeorxCrchfptVg8c0AF5">
    <mxGraphModel dx="2074" dy="1231" grid="1" gridSize="10" guides="1" tooltips="1" connect="1" arrows="1" fold="1" page="1" pageScale="1" pageWidth="400" pageHeight="240" math="0" shadow="0">
      <root>
        <mxCell id="3y3-qa8nX72UWMzAV9ol-0" />
        <mxCell id="3y3-qa8nX72UWMzAV9ol-1" parent="3y3-qa8nX72UWMzAV9ol-0" />
        <mxCell id="3y3-qa8nX72UWMzAV9ol-3" value="p" style="text;html=1;align=center;verticalAlign=middle;whiteSpace=wrap;rounded=0;fillColor=#f5f5f5;strokeColor=#666666;fontSize=14;fontColor=#333333;" parent="3y3-qa8nX72UWMzAV9ol-1" vertex="1">
          <mxGeometry x="40" y="60" width="40" height="40" as="geometry" />
        </mxCell>
        <mxCell id="2Z6g3z9JoJPd3ROimGJG-10" style="edgeStyle=orthogonalEdgeStyle;rounded=0;orthogonalLoop=1;jettySize=auto;html=1;exitX=0.5;exitY=0;exitDx=0;exitDy=0;entryX=0.5;entryY=0;entryDx=0;entryDy=0;fillColor=#dae8fc;strokeColor=#6c8ebf;" parent="3y3-qa8nX72UWMzAV9ol-1" source="3y3-qa8nX72UWMzAV9ol-4" target="3y3-qa8nX72UWMzAV9ol-9" edge="1">
          <mxGeometry relative="1" as="geometry" />
        </mxCell>
        <mxCell id="3y3-qa8nX72UWMzAV9ol-4" value="w" style="text;html=1;align=center;verticalAlign=middle;whiteSpace=wrap;rounded=0;fillColor=#dae8fc;strokeColor=#6c8ebf;fontSize=14;fontColor=#333333;" parent="3y3-qa8nX72UWMzAV9ol-1" vertex="1">
          <mxGeometry x="80" y="59.97" width="40" height="40" as="geometry" />
        </mxCell>
        <mxCell id="3y3-qa8nX72UWMzAV9ol-5" value="w" style="text;html=1;align=center;verticalAlign=middle;whiteSpace=wrap;rounded=0;fillColor=#f5f5f5;strokeColor=#666666;fontSize=14;fontColor=#333333;" parent="3y3-qa8nX72UWMzAV9ol-1" vertex="1">
          <mxGeometry x="120" y="59.97" width="40" height="40" as="geometry" />
        </mxCell>
        <mxCell id="3y3-qa8nX72UWMzAV9ol-6" value="k" style="text;html=1;align=center;verticalAlign=middle;whiteSpace=wrap;rounded=0;fillColor=#f5f5f5;strokeColor=#666666;fontSize=14;fontColor=#333333;" parent="3y3-qa8nX72UWMzAV9ol-1" vertex="1">
          <mxGeometry x="160" y="59.97" width="40" height="40" as="geometry" />
        </mxCell>
        <mxCell id="3y3-qa8nX72UWMzAV9ol-7" value="e" style="text;html=1;align=center;verticalAlign=middle;whiteSpace=wrap;rounded=0;fillColor=#f5f5f5;strokeColor=#666666;fontSize=14;fontColor=#333333;" parent="3y3-qa8nX72UWMzAV9ol-1" vertex="1">
          <mxGeometry x="200" y="60" width="40" height="40" as="geometry" />
        </mxCell>
        <mxCell id="3y3-qa8nX72UWMzAV9ol-8" value="w" style="text;html=1;align=center;verticalAlign=middle;whiteSpace=wrap;rounded=0;fillColor=#f5f5f5;strokeColor=#666666;fontSize=14;fontColor=#333333;" parent="3y3-qa8nX72UWMzAV9ol-1" vertex="1">
          <mxGeometry x="240" y="59.97" width="40" height="40" as="geometry" />
        </mxCell>
        <mxCell id="3y3-qa8nX72UWMzAV9ol-9" value="p" style="text;html=1;align=center;verticalAlign=middle;whiteSpace=wrap;rounded=0;fillColor=#f5f5f5;strokeColor=#666666;fontSize=14;fontColor=#333333;fontStyle=0" parent="3y3-qa8nX72UWMzAV9ol-1" vertex="1">
          <mxGeometry x="320" y="59.97" width="40" height="20" as="geometry" />
        </mxCell>
        <mxCell id="3y3-qa8nX72UWMzAV9ol-10" value="s" style="text;html=1;align=center;verticalAlign=middle;whiteSpace=wrap;rounded=0;fontSize=10;" parent="3y3-qa8nX72UWMzAV9ol-1" vertex="1">
          <mxGeometry x="40" y="100" width="240" height="20" as="geometry" />
        </mxCell>
        <mxCell id="2Z6g3z9JoJPd3ROimGJG-6" style="edgeStyle=orthogonalEdgeStyle;rounded=0;orthogonalLoop=1;jettySize=auto;html=1;exitX=0.5;exitY=0;exitDx=0;exitDy=0;entryX=0.5;entryY=0;entryDx=0;entryDy=0;fillColor=#dae8fc;strokeColor=#6c8ebf;" parent="3y3-qa8nX72UWMzAV9ol-1" source="3y3-qa8nX72UWMzAV9ol-11" target="2Z6g3z9JoJPd3ROimGJG-4" edge="1">
          <mxGeometry relative="1" as="geometry">
            <Array as="points">
              <mxPoint x="340" y="130" />
              <mxPoint x="340" y="130" />
            </Array>
          </mxGeometry>
        </mxCell>
        <mxCell id="3y3-qa8nX72UWMzAV9ol-11" value="characters" style="text;html=1;align=center;verticalAlign=middle;whiteSpace=wrap;rounded=0;fontSize=10;" parent="3y3-qa8nX72UWMzAV9ol-1" vertex="1">
          <mxGeometry x="320" y="99.97" width="40" height="20" as="geometry" />
        </mxCell>
        <mxCell id="2Z6g3z9JoJPd3ROimGJG-1" value="w" style="text;html=1;align=center;verticalAlign=middle;whiteSpace=wrap;rounded=0;fillColor=#dae8fc;strokeColor=#6c8ebf;fontSize=14;fontStyle=0;fontColor=#333333;" parent="3y3-qa8nX72UWMzAV9ol-1" vertex="1">
          <mxGeometry x="320" y="79.97" width="40" height="20" as="geometry" />
        </mxCell>
        <mxCell id="2Z6g3z9JoJPd3ROimGJG-4" value="2" style="text;html=1;align=center;verticalAlign=middle;whiteSpace=wrap;rounded=0;fillColor=#d5e8d4;strokeColor=#82b366;fontSize=14;fontStyle=0;fontColor=#333333;" parent="3y3-qa8nX72UWMzAV9ol-1" vertex="1">
          <mxGeometry x="320" y="140" width="40" height="40" as="geometry" />
        </mxCell>
        <mxCell id="2Z6g3z9JoJPd3ROimGJG-7" value="return" style="text;html=1;align=center;verticalAlign=middle;whiteSpace=wrap;rounded=0;fontSize=10;" parent="3y3-qa8nX72UWMzAV9ol-1" vertex="1">
          <mxGeometry x="320" y="180" width="40" height="20" as="geometry" />
        </mxCell>
      </root>
    </mxGraphModel>
  </diagram>
  <diagram name="2" id="AAGZdDQzykqDygvF8cnN">
    <mxGraphModel dx="2074" dy="1231" grid="1" gridSize="10" guides="1" tooltips="1" connect="1" arrows="1" fold="1" page="1" pageScale="1" pageWidth="400" pageHeight="220" math="0" shadow="0">
      <root>
        <mxCell id="sjNoCsYYFSI8FMn1Vgqy-0" />
        <mxCell id="sjNoCsYYFSI8FMn1Vgqy-1" parent="sjNoCsYYFSI8FMn1Vgqy-0" />
        <mxCell id="sjNoCsYYFSI8FMn1Vgqy-2" value="p" style="text;html=1;align=center;verticalAlign=middle;whiteSpace=wrap;rounded=0;fillColor=#f5f5f5;strokeColor=#666666;fontSize=14;fontColor=#333333;" parent="sjNoCsYYFSI8FMn1Vgqy-1" vertex="1">
          <mxGeometry x="40" y="60" width="40" height="40" as="geometry" />
        </mxCell>
        <mxCell id="sjNoCsYYFSI8FMn1Vgqy-4" value="w" style="text;html=1;align=center;verticalAlign=middle;whiteSpace=wrap;rounded=0;fillColor=#f5f5f5;strokeColor=#666666;fontSize=14;fontColor=#333333;" parent="sjNoCsYYFSI8FMn1Vgqy-1" vertex="1">
          <mxGeometry x="80" y="59.97" width="40" height="40" as="geometry" />
        </mxCell>
        <mxCell id="8HIn_b-gXgbn-ch8ZtL2-0" style="edgeStyle=orthogonalEdgeStyle;rounded=0;orthogonalLoop=1;jettySize=auto;html=1;exitX=0.5;exitY=0;exitDx=0;exitDy=0;entryX=0.5;entryY=0;entryDx=0;entryDy=0;fillColor=#dae8fc;strokeColor=#6c8ebf;" parent="sjNoCsYYFSI8FMn1Vgqy-1" source="sjNoCsYYFSI8FMn1Vgqy-5" target="sjNoCsYYFSI8FMn1Vgqy-9" edge="1">
          <mxGeometry relative="1" as="geometry">
            <mxPoint x="120" y="60.040000000000056" as="sourcePoint" />
            <Array as="points">
              <mxPoint x="140" y="40" />
              <mxPoint x="340" y="40" />
            </Array>
          </mxGeometry>
        </mxCell>
        <mxCell id="sjNoCsYYFSI8FMn1Vgqy-5" value="w" style="text;html=1;align=center;verticalAlign=middle;whiteSpace=wrap;rounded=0;fillColor=#dae8fc;strokeColor=#6c8ebf;fontSize=14;fontColor=#333333;" parent="sjNoCsYYFSI8FMn1Vgqy-1" vertex="1">
          <mxGeometry x="120" y="59.94" width="40" height="40" as="geometry" />
        </mxCell>
        <mxCell id="sjNoCsYYFSI8FMn1Vgqy-6" value="k" style="text;html=1;align=center;verticalAlign=middle;whiteSpace=wrap;rounded=0;fillColor=#f5f5f5;strokeColor=#666666;fontSize=14;fontColor=#333333;" parent="sjNoCsYYFSI8FMn1Vgqy-1" vertex="1">
          <mxGeometry x="160" y="60.04" width="40" height="40" as="geometry" />
        </mxCell>
        <mxCell id="sjNoCsYYFSI8FMn1Vgqy-7" value="e" style="text;html=1;align=center;verticalAlign=middle;whiteSpace=wrap;rounded=0;fillColor=#f5f5f5;strokeColor=#666666;fontSize=14;fontColor=#333333;" parent="sjNoCsYYFSI8FMn1Vgqy-1" vertex="1">
          <mxGeometry x="200" y="59.94" width="40" height="40" as="geometry" />
        </mxCell>
        <mxCell id="sjNoCsYYFSI8FMn1Vgqy-8" value="w" style="text;html=1;align=center;verticalAlign=middle;whiteSpace=wrap;rounded=0;fillColor=#f5f5f5;strokeColor=#666666;fontSize=14;fontColor=#333333;" parent="sjNoCsYYFSI8FMn1Vgqy-1" vertex="1">
          <mxGeometry x="240" y="59.94" width="40" height="40" as="geometry" />
        </mxCell>
        <mxCell id="sjNoCsYYFSI8FMn1Vgqy-9" value="w" style="text;html=1;align=center;verticalAlign=middle;whiteSpace=wrap;rounded=0;fillColor=#dae8fc;strokeColor=#6c8ebf;fontSize=14;fontStyle=0;fontColor=#333333;" parent="sjNoCsYYFSI8FMn1Vgqy-1" vertex="1">
          <mxGeometry x="320" y="59.94" width="40" height="20" as="geometry" />
        </mxCell>
        <mxCell id="sjNoCsYYFSI8FMn1Vgqy-10" value="s" style="text;html=1;align=center;verticalAlign=middle;whiteSpace=wrap;rounded=0;fontSize=10;" parent="sjNoCsYYFSI8FMn1Vgqy-1" vertex="1">
          <mxGeometry x="40" y="100" width="240" height="20" as="geometry" />
        </mxCell>
        <mxCell id="sjNoCsYYFSI8FMn1Vgqy-11" style="edgeStyle=orthogonalEdgeStyle;rounded=0;orthogonalLoop=1;jettySize=auto;html=1;exitX=0.5;exitY=0;exitDx=0;exitDy=0;entryX=0.5;entryY=0;entryDx=0;entryDy=0;fillColor=#dae8fc;strokeColor=#6c8ebf;" parent="sjNoCsYYFSI8FMn1Vgqy-1" source="sjNoCsYYFSI8FMn1Vgqy-12" target="sjNoCsYYFSI8FMn1Vgqy-15" edge="1">
          <mxGeometry relative="1" as="geometry">
            <Array as="points">
              <mxPoint x="340" y="110" />
              <mxPoint x="340" y="110" />
            </Array>
          </mxGeometry>
        </mxCell>
        <mxCell id="sjNoCsYYFSI8FMn1Vgqy-12" value="characters" style="text;html=1;align=center;verticalAlign=middle;whiteSpace=wrap;rounded=0;fontSize=10;" parent="sjNoCsYYFSI8FMn1Vgqy-1" vertex="1">
          <mxGeometry x="320" y="79.94" width="40" height="20" as="geometry" />
        </mxCell>
        <mxCell id="sjNoCsYYFSI8FMn1Vgqy-15" value="2" style="text;html=1;align=center;verticalAlign=middle;whiteSpace=wrap;rounded=0;fontSize=14;fillColor=#f5f5f5;fontColor=#333333;strokeColor=#666666;" parent="sjNoCsYYFSI8FMn1Vgqy-1" vertex="1">
          <mxGeometry x="320" y="120" width="40" height="40" as="geometry" />
        </mxCell>
        <mxCell id="sjNoCsYYFSI8FMn1Vgqy-16" value="return" style="text;html=1;align=center;verticalAlign=middle;whiteSpace=wrap;rounded=0;fontSize=10;" parent="sjNoCsYYFSI8FMn1Vgqy-1" vertex="1">
          <mxGeometry x="320" y="160" width="40" height="20" as="geometry" />
        </mxCell>
      </root>
    </mxGraphModel>
  </diagram>
  <diagram name="3" id="GhXlM7cB8pK8kyg_dogi">
    <mxGraphModel dx="2074" dy="1231" grid="1" gridSize="10" guides="1" tooltips="1" connect="1" arrows="1" fold="1" page="1" pageScale="1" pageWidth="400" pageHeight="240" math="0" shadow="0">
      <root>
        <mxCell id="GcxVjEox_8abXFFvf6bN-0" />
        <mxCell id="GcxVjEox_8abXFFvf6bN-1" parent="GcxVjEox_8abXFFvf6bN-0" />
        <mxCell id="GcxVjEox_8abXFFvf6bN-2" value="p" style="text;html=1;align=center;verticalAlign=middle;whiteSpace=wrap;rounded=0;fillColor=#f5f5f5;strokeColor=#666666;fontSize=14;fontColor=#333333;" parent="GcxVjEox_8abXFFvf6bN-1" vertex="1">
          <mxGeometry x="40" y="60" width="40" height="40" as="geometry" />
        </mxCell>
        <mxCell id="GcxVjEox_8abXFFvf6bN-3" value="w" style="text;html=1;align=center;verticalAlign=middle;whiteSpace=wrap;rounded=0;fillColor=#f5f5f5;strokeColor=#666666;fontSize=14;fontColor=#333333;" parent="GcxVjEox_8abXFFvf6bN-1" vertex="1">
          <mxGeometry x="80" y="59.97" width="40" height="40" as="geometry" />
        </mxCell>
        <mxCell id="GcxVjEox_8abXFFvf6bN-5" value="w" style="text;html=1;align=center;verticalAlign=middle;whiteSpace=wrap;rounded=0;fillColor=#f5f5f5;strokeColor=#666666;fontSize=14;fontColor=#333333;" parent="GcxVjEox_8abXFFvf6bN-1" vertex="1">
          <mxGeometry x="120" y="59.94" width="40" height="40" as="geometry" />
        </mxCell>
        <mxCell id="H1qa25oAy0kIXDdeZ3mC-0" style="edgeStyle=orthogonalEdgeStyle;rounded=0;orthogonalLoop=1;jettySize=auto;html=1;exitX=0.5;exitY=0;exitDx=0;exitDy=0;entryX=0.5;entryY=0;entryDx=0;entryDy=0;fillColor=#dae8fc;strokeColor=#6c8ebf;" parent="GcxVjEox_8abXFFvf6bN-1" source="GcxVjEox_8abXFFvf6bN-6" target="GcxVjEox_8abXFFvf6bN-9" edge="1">
          <mxGeometry relative="1" as="geometry" />
        </mxCell>
        <mxCell id="GcxVjEox_8abXFFvf6bN-6" value="k" style="text;html=1;align=center;verticalAlign=middle;whiteSpace=wrap;rounded=0;fillColor=#dae8fc;strokeColor=#6c8ebf;fontSize=14;fontColor=#333333;" parent="GcxVjEox_8abXFFvf6bN-1" vertex="1">
          <mxGeometry x="160" y="60.03" width="40" height="40" as="geometry" />
        </mxCell>
        <mxCell id="GcxVjEox_8abXFFvf6bN-7" value="e" style="text;html=1;align=center;verticalAlign=middle;whiteSpace=wrap;rounded=0;fillColor=#f5f5f5;strokeColor=#666666;fontSize=14;fontColor=#333333;" parent="GcxVjEox_8abXFFvf6bN-1" vertex="1">
          <mxGeometry x="200" y="59.94" width="40" height="40" as="geometry" />
        </mxCell>
        <mxCell id="GcxVjEox_8abXFFvf6bN-8" value="w" style="text;html=1;align=center;verticalAlign=middle;whiteSpace=wrap;rounded=0;fillColor=#f5f5f5;strokeColor=#666666;fontSize=14;fontColor=#333333;" parent="GcxVjEox_8abXFFvf6bN-1" vertex="1">
          <mxGeometry x="240" y="59.94" width="40" height="40" as="geometry" />
        </mxCell>
        <mxCell id="GcxVjEox_8abXFFvf6bN-9" value="w" style="text;html=1;align=center;verticalAlign=middle;whiteSpace=wrap;rounded=0;fillColor=#f5f5f5;strokeColor=#666666;fontSize=14;fontStyle=0;fontColor=#333333;" parent="GcxVjEox_8abXFFvf6bN-1" vertex="1">
          <mxGeometry x="320" y="59.94" width="40" height="20" as="geometry" />
        </mxCell>
        <mxCell id="GcxVjEox_8abXFFvf6bN-10" value="s" style="text;html=1;align=center;verticalAlign=middle;whiteSpace=wrap;rounded=0;fontSize=10;" parent="GcxVjEox_8abXFFvf6bN-1" vertex="1">
          <mxGeometry x="40" y="100" width="240" height="20" as="geometry" />
        </mxCell>
        <mxCell id="7PkjT2Jezyh1cLpxrLWE-0" style="edgeStyle=orthogonalEdgeStyle;rounded=0;orthogonalLoop=1;jettySize=auto;html=1;exitX=0.5;exitY=0;exitDx=0;exitDy=0;entryX=0.5;entryY=0;entryDx=0;entryDy=0;fillColor=#dae8fc;strokeColor=#6c8ebf;" parent="GcxVjEox_8abXFFvf6bN-1" source="GcxVjEox_8abXFFvf6bN-12" target="GcxVjEox_8abXFFvf6bN-13" edge="1">
          <mxGeometry relative="1" as="geometry">
            <Array as="points">
              <mxPoint x="340" y="130" />
              <mxPoint x="340" y="130" />
            </Array>
          </mxGeometry>
        </mxCell>
        <mxCell id="GcxVjEox_8abXFFvf6bN-12" value="characters" style="text;html=1;align=center;verticalAlign=middle;whiteSpace=wrap;rounded=0;fontSize=10;" parent="GcxVjEox_8abXFFvf6bN-1" vertex="1">
          <mxGeometry x="320" y="99.94" width="40" height="20" as="geometry" />
        </mxCell>
        <mxCell id="GcxVjEox_8abXFFvf6bN-13" value="2" style="text;html=1;align=center;verticalAlign=middle;whiteSpace=wrap;rounded=0;fillColor=#f5f5f5;strokeColor=#666666;fontSize=14;fontColor=#333333;" parent="GcxVjEox_8abXFFvf6bN-1" vertex="1">
          <mxGeometry x="320" y="140" width="40" height="40" as="geometry" />
        </mxCell>
        <mxCell id="GcxVjEox_8abXFFvf6bN-14" value="return" style="text;html=1;align=center;verticalAlign=middle;whiteSpace=wrap;rounded=0;fontSize=10;" parent="GcxVjEox_8abXFFvf6bN-1" vertex="1">
          <mxGeometry x="320" y="180" width="40" height="20" as="geometry" />
        </mxCell>
        <mxCell id="H1qa25oAy0kIXDdeZ3mC-1" value="k" style="text;html=1;align=center;verticalAlign=middle;whiteSpace=wrap;rounded=0;fillColor=#dae8fc;strokeColor=#6c8ebf;fontSize=14;fontStyle=0;fontColor=#333333;" parent="GcxVjEox_8abXFFvf6bN-1" vertex="1">
          <mxGeometry x="320" y="79.94" width="40" height="20" as="geometry" />
        </mxCell>
      </root>
    </mxGraphModel>
  </diagram>
  <diagram name="4" id="m5_nkE-I_RRZVL6a77Cb">
    <mxGraphModel dx="2074" dy="1231" grid="1" gridSize="10" guides="1" tooltips="1" connect="1" arrows="1" fold="1" page="1" pageScale="1" pageWidth="400" pageHeight="260" math="0" shadow="0">
      <root>
        <mxCell id="ZBMB4oJqOgm-2mcNZrZv-0" />
        <mxCell id="ZBMB4oJqOgm-2mcNZrZv-1" parent="ZBMB4oJqOgm-2mcNZrZv-0" />
        <mxCell id="ZBMB4oJqOgm-2mcNZrZv-2" value="p" style="text;html=1;align=center;verticalAlign=middle;whiteSpace=wrap;rounded=0;fillColor=#f5f5f5;strokeColor=#666666;fontSize=14;fontColor=#333333;" parent="ZBMB4oJqOgm-2mcNZrZv-1" vertex="1">
          <mxGeometry x="40" y="60" width="40" height="40" as="geometry" />
        </mxCell>
        <mxCell id="ZBMB4oJqOgm-2mcNZrZv-3" value="w" style="text;html=1;align=center;verticalAlign=middle;whiteSpace=wrap;rounded=0;fillColor=#f5f5f5;strokeColor=#666666;fontSize=14;fontColor=#333333;" parent="ZBMB4oJqOgm-2mcNZrZv-1" vertex="1">
          <mxGeometry x="80" y="60" width="40" height="40" as="geometry" />
        </mxCell>
        <mxCell id="ZBMB4oJqOgm-2mcNZrZv-4" value="w" style="text;html=1;align=center;verticalAlign=middle;whiteSpace=wrap;rounded=0;fillColor=#f5f5f5;strokeColor=#666666;fontSize=14;fontColor=#333333;" parent="ZBMB4oJqOgm-2mcNZrZv-1" vertex="1">
          <mxGeometry x="120" y="60" width="40" height="40" as="geometry" />
        </mxCell>
        <mxCell id="ZBMB4oJqOgm-2mcNZrZv-6" value="k" style="text;html=1;align=center;verticalAlign=middle;whiteSpace=wrap;rounded=0;fillColor=#f5f5f5;strokeColor=#666666;fontSize=14;fontColor=#333333;" parent="ZBMB4oJqOgm-2mcNZrZv-1" vertex="1">
          <mxGeometry x="160" y="60" width="40" height="40" as="geometry" />
        </mxCell>
        <mxCell id="cI9omxzENp6r0dOrVd3h-2" style="edgeStyle=orthogonalEdgeStyle;rounded=0;orthogonalLoop=1;jettySize=auto;html=1;exitX=0.5;exitY=0;exitDx=0;exitDy=0;entryX=0.5;entryY=0;entryDx=0;entryDy=0;fillColor=#dae8fc;strokeColor=#6c8ebf;" parent="ZBMB4oJqOgm-2mcNZrZv-1" source="ZBMB4oJqOgm-2mcNZrZv-7" target="ZBMB4oJqOgm-2mcNZrZv-9" edge="1">
          <mxGeometry relative="1" as="geometry" />
        </mxCell>
        <mxCell id="ZBMB4oJqOgm-2mcNZrZv-7" value="e" style="text;html=1;align=center;verticalAlign=middle;whiteSpace=wrap;rounded=0;fillColor=#dae8fc;strokeColor=#6c8ebf;fontSize=14;fontColor=#333333;" parent="ZBMB4oJqOgm-2mcNZrZv-1" vertex="1">
          <mxGeometry x="200" y="60" width="40" height="40" as="geometry" />
        </mxCell>
        <mxCell id="ZBMB4oJqOgm-2mcNZrZv-8" value="w" style="text;html=1;align=center;verticalAlign=middle;whiteSpace=wrap;rounded=0;fillColor=#f5f5f5;strokeColor=#666666;fontSize=14;fontColor=#333333;" parent="ZBMB4oJqOgm-2mcNZrZv-1" vertex="1">
          <mxGeometry x="240" y="60" width="40" height="40" as="geometry" />
        </mxCell>
        <mxCell id="ZBMB4oJqOgm-2mcNZrZv-9" value="w" style="text;html=1;align=center;verticalAlign=middle;whiteSpace=wrap;rounded=0;fillColor=#f5f5f5;strokeColor=#666666;fontSize=14;fontStyle=0;fontColor=#333333;" parent="ZBMB4oJqOgm-2mcNZrZv-1" vertex="1">
          <mxGeometry x="320" y="60" width="40" height="20" as="geometry" />
        </mxCell>
        <mxCell id="ZBMB4oJqOgm-2mcNZrZv-10" value="s" style="text;html=1;align=center;verticalAlign=middle;whiteSpace=wrap;rounded=0;fontSize=10;" parent="ZBMB4oJqOgm-2mcNZrZv-1" vertex="1">
          <mxGeometry x="40" y="100" width="240" height="20" as="geometry" />
        </mxCell>
        <mxCell id="ZBMB4oJqOgm-2mcNZrZv-11" style="edgeStyle=orthogonalEdgeStyle;rounded=0;orthogonalLoop=1;jettySize=auto;html=1;exitX=0.5;exitY=1;exitDx=0;exitDy=0;entryX=0.5;entryY=0;entryDx=0;entryDy=0;fillColor=#dae8fc;strokeColor=#6c8ebf;" parent="ZBMB4oJqOgm-2mcNZrZv-1" source="cI9omxzENp6r0dOrVd3h-1" target="ZBMB4oJqOgm-2mcNZrZv-13" edge="1">
          <mxGeometry relative="1" as="geometry" />
        </mxCell>
        <mxCell id="ZBMB4oJqOgm-2mcNZrZv-12" value="characters" style="text;html=1;align=center;verticalAlign=middle;whiteSpace=wrap;rounded=0;fontSize=10;" parent="ZBMB4oJqOgm-2mcNZrZv-1" vertex="1">
          <mxGeometry x="320" y="120" width="40" height="20" as="geometry" />
        </mxCell>
        <mxCell id="ZBMB4oJqOgm-2mcNZrZv-13" value="3" style="text;html=1;align=center;verticalAlign=middle;whiteSpace=wrap;rounded=0;fillColor=#d5e8d4;strokeColor=#82b366;fontSize=14;fontStyle=0;fontColor=#333333;" parent="ZBMB4oJqOgm-2mcNZrZv-1" vertex="1">
          <mxGeometry x="320" y="160" width="40" height="40" as="geometry" />
        </mxCell>
        <mxCell id="ZBMB4oJqOgm-2mcNZrZv-14" value="result" style="text;html=1;align=center;verticalAlign=middle;whiteSpace=wrap;rounded=0;fontSize=10;" parent="ZBMB4oJqOgm-2mcNZrZv-1" vertex="1">
          <mxGeometry x="320" y="200" width="40" height="20" as="geometry" />
        </mxCell>
        <mxCell id="ZBMB4oJqOgm-2mcNZrZv-15" value="k" style="text;html=1;align=center;verticalAlign=middle;whiteSpace=wrap;rounded=0;fillColor=#f5f5f5;strokeColor=#666666;fontSize=14;fontStyle=0;fontColor=#333333;" parent="ZBMB4oJqOgm-2mcNZrZv-1" vertex="1">
          <mxGeometry x="320" y="80" width="40" height="20" as="geometry" />
        </mxCell>
        <mxCell id="cI9omxzENp6r0dOrVd3h-1" value="e" style="text;html=1;align=center;verticalAlign=middle;whiteSpace=wrap;rounded=0;fillColor=#dae8fc;strokeColor=#6c8ebf;fontSize=14;fontStyle=0;fontColor=#333333;" parent="ZBMB4oJqOgm-2mcNZrZv-1" vertex="1">
          <mxGeometry x="320" y="100" width="40" height="20" as="geometry" />
        </mxCell>
      </root>
    </mxGraphModel>
  </diagram>
</mxfile>
